<?xml version="1.0" encoding="UTF-8" standalone="no"?>
<svg
   id="Line__x26__Text"
   version="1.1"
   viewBox="0 0 1363.8512 84.791817"
   sodipodi:docname="HORIZONTAL_WEB_white.svg"
   width="1363.8512"
   height="84.791817"
   inkscape:version="1.1.1 (3bf5ae0d25, 2021-09-20)"
   xmlns:inkscape="http://www.inkscape.org/namespaces/inkscape"
   xmlns:sodipodi="http://sodipodi.sourceforge.net/DTD/sodipodi-0.dtd"
   xmlns="http://www.w3.org/2000/svg"
   xmlns:svg="http://www.w3.org/2000/svg">
  <sodipodi:namedview
     id="namedview139"
     pagecolor="#847e81"
     bordercolor="#666666"
     borderopacity="1.0"
     inkscape:pageshadow="2"
     inkscape:pageopacity="1"
     inkscape:pagecheckerboard="0"
     showgrid="false"
     inkscape:snap-global="true"
     height="115px"
     inkscape:zoom="0.74741848"
     inkscape:cx="1283.0831"
     inkscape:cy="-44.151972"
     inkscape:window-width="3107"
     inkscape:window-height="1159"
     inkscape:window-x="517"
     inkscape:window-y="593"
     inkscape:window-maximized="0"
     inkscape:current-layer="g132"
     fit-margin-top="0"
     fit-margin-left="0"
     fit-margin-right="0"
     fit-margin-bottom="0" />
  <!-- Generator: Adobe Illustrator 29.8.1, SVG Export Plug-In . SVG Version: 2.1.1 Build 2)  -->
  <defs
     id="defs4">
    <style
       id="style2">
      .st0 {
        fill: #fff;
      }

      .st1 {
        fill: #fefefe;
      }
    </style>
  </defs>
  <g
     id="g16"
     transform="matrix(1.0481065,0,0,1.0481065,-16.350461,-18.551485)">
    <path
       class="st1"
       d="m 32.8,53.7 v 20 c 12,-6 26.1,-9.4 39.3,-9.4 13.2,0 27.3,3.4 39.3,9.4 v -20 C 99.4,47.5 85.3,44 72.1,44 58.9,44 44.8,47.5 32.8,53.7 Z m 16.6,-0.3 c -1,0.3 -2,0.6 -3.1,0.9 v -1.1 l -4.4,1.5 V 58 c 0,0 4,-1.5 5.7,-2 l 1.8,1.2 v 4.7 l -2.5,3.2 c -1.9,0.6 -3.8,1.3 -5.7,2 -0.7,-0.5 -1.5,-0.9 -2.2,-1.4 v -1.8 c 1,-0.4 2,-0.8 3,-1.2 v 1.7 l 0.4,-0.2 c 1.2,-0.5 4,-1.4 4,-1.4 v -4.2 c 0,0 -4.1,1.4 -5.8,2 L 39,59.5 v -3.9 l 2.4,-3.3 c 1.9,-0.7 3.8,-1.4 5.7,-2 0.8,0.5 1.6,1 2.3,1.5 v 1.4 z m 10.2,-3.2 v 9.6 c 0,0 1.2,-0.2 1.2,-0.2 v 2.5 c -1.9,0.2 -3.7,0.6 -5.6,0.9 v -2.5 l 1.2,-0.2 c 0,0 0,-9.6 0,-9.6 l -2.6,0.5 v 1.7 c -0.8,0.2 -1.6,0.4 -2.4,0.6 v -4.2 c 4.4,-1.1 8.8,-1.8 13.3,-2.2 v 4.2 c -0.8,0 -1.6,0.2 -2.5,0.2 v -1.7 l -2.7,0.3 z m 33.4,11.4 1.2,0.3 c 0,0 0,-9.6 0,-9.6 0,0 -1.2,-0.3 -1.2,-0.3 v -2.5 c 3.9,1 7.9,2.4 11.6,4 v 3.4 c -1,-0.4 -2,-0.8 -3,-1.2 v -0.9 c 0,0 -4.4,-1.5 -4.4,-1.5 v 3.5 c 0,0 2.8,0.9 4.1,1.4 v 2.2 C 100.1,59.9 97.2,59 97.2,59 v 3.8 l 4.4,1.5 v -1.1 c 1,0.4 2,0.8 3,1.2 V 68 C 100.8,66.4 96.9,65.1 93,64.1 Z M 77.5,47 c 4.5,0.3 8.9,1 13.3,2 v 4.2 C 90,53 89.2,52.8 88.4,52.7 V 51 l -2.7,-0.5 v 9.6 c 0,0 1.2,0.2 1.2,0.2 v 2.5 C 85,62.5 83.2,62.2 81.3,62 v -2.5 h 1.2 c 0,0.1 0,-9.4 0,-9.4 l -2.6,-0.3 v 1.7 c -0.8,0 -1.6,-0.1 -2.5,-0.2 V 47.1 Z M 77,59 c 0,0 0.9,0 1.3,0 v 2.5 c -1.8,-0.1 -3.6,-0.2 -5.4,-0.2 v -2.5 h 1.2 c 0,0 -0.8,-2.2 -0.8,-2.2 h -4.8 c 0,0 -0.8,2.3 -0.8,2.3 0,0 1.2,0 1.2,0 v 2.5 c -1.7,0 -3.4,0.2 -5.1,0.3 V 59.2 H 65 c 0,-0.1 4.4,-12.4 4.4,-12.4 1.1,0 2.3,0 3.5,0 L 77.1,59 Z"
       id="path6" />
    <path
       class="st1"
       d="m 122.1,60.6 4.3,-9.5 c -7.1,-5.3 -17.8,-9.6 -17.8,-9.6 l 3.7,-6 V 25 H 85 l -9.3,14.5 c -1.2,0 -2.4,0 -3.7,0 -1.3,0 -2.4,0 -3.7,0 L 59,25 H 31.7 v 10.5 l 3.7,6 c 0,0 -10.7,4.3 -17.8,9.6 l 4.3,9.5 -6.3,20.2 c 0,0 5.5,-3.8 12.2,-7.8 v 8.9 c 0,0 3.6,-2.3 7,-4 l -3.2,4.8 V 93.5 H 61.5 V 71.2 L 71.8,87.5 82.1,71.2 V 93.5 H 112 V 82.7 l -3.2,-4.8 c 3.5,1.7 7,4 7,4 V 73 c 6.7,4 12.2,7.8 12.2,7.8 l -6.3,-20.2 z m -7.9,9 v 8.5 c -2.5,-1.5 -5.1,-2.8 -7.9,-4 v 3.6 l 3.7,5.7 v 7.8 H 84.7 V 68 C 83.8,67.9 82.9,67.8 81.9,67.7 L 72.1,83.2 62.3,67.7 c -0.9,0.1 -1.8,0.2 -2.8,0.3 V 91.2 H 34.2 v -7.8 l 3.7,-5.7 v -3.6 c -2.7,1.2 -5.4,2.5 -7.9,4 v -8.5 c -3.3,1.7 -7,3.8 -10.6,6.2 l 4.8,-15.4 -4,-8.7 c 5.4,-3.5 11.4,-6.6 17.6,-9 v -1.9 l -3.7,-6 V 27.2 H 57.8 L 67,41.5 c 1.7,-0.1 3.3,-0.2 5,-0.2 1.7,0 3.3,0 5,0.2 l 9.2,-14.3 h 23.7 v 7.6 l -3.7,6 v 1.9 c 6.2,2.4 12.2,5.4 17.6,9 l -4,8.7 4.8,15.4 C 121,73.4 117.3,71.3 114,69.6 Z"
       id="path8" />
    <path
       class="st1"
       d="m 38,45.4 c -5.2,2 -9.9,4.4 -14.4,7.2 L 27,60.1 23.9,70 c 2,-1.2 4.1,-2.2 6.2,-3.3 V 52 C 32.5,50.8 36,49.1 38,48.3 Z"
       id="path10" />
    <polygon
       class="st1"
       points="72.6,54.4 71,49.9 69.3,54.4 "
       id="polygon12" />
    <path
       class="st1"
       d="m 117.3,60.1 3.4,-7.5 c -4.5,-2.8 -9.2,-5.2 -14.4,-7.2 v 2.9 c 2,0.8 5.5,2.5 7.9,3.7 v 14.7 c 2.1,1 4.2,2.1 6.2,3.3 z"
       id="path14" />
  </g>
  <g
     id="g136"
     transform="matrix(1.0481065,0,0,1.0481065,-16.350461,-18.551485)">
    <g
       id="g132">
      <g
         id="g74"
         transform="matrix(2.7116885,0,0,2.7116885,-268.4006,-129.80977)">
        <path
           class="st0"
           d="m 175.2,74.2 h -7.7 l -2.2,5.1 h -2.2 l 8.3,-19 8.1,19 h -2.2 z m -0.8,-1.9 -3,-7.3 -3.1,7.3 z"
           id="path18" />
        <path
           class="st0"
           d="m 184,71.4 v 7.9 h -2 V 61.2 h 3.3 c 1.2,0 2.2,0.1 3,0.4 0.8,0.2 1.4,0.7 1.9,1.2 0.9,0.9 1.3,2.1 1.3,3.5 0,1.4 -0.5,2.8 -1.5,3.7 -1,0.9 -2.4,1.4 -4.2,1.4 z m 0,-1.9 h 1.6 c 1.2,0 2.2,-0.3 2.9,-0.8 0.7,-0.6 1,-1.4 1,-2.4 0,-2.1 -1.3,-3.2 -4,-3.2 H 184 Z"
           id="path20" />
        <path
           class="st0"
           d="m 196.3,71.4 v 7.9 h -2 V 61.2 h 3.3 c 1.2,0 2.2,0.1 3,0.4 0.8,0.2 1.4,0.7 1.9,1.2 0.9,0.9 1.3,2.1 1.3,3.5 0,1.4 -0.5,2.8 -1.5,3.7 -1,0.9 -2.4,1.4 -4.2,1.4 z m 0,-1.9 h 1.6 c 1.2,0 2.2,-0.3 2.9,-0.8 0.7,-0.6 1,-1.4 1,-2.4 0,-2.1 -1.3,-3.2 -4,-3.2 h -1.5 z"
           id="path22" />
        <path
           class="st0"
           d="m 208.7,61.2 v 16.2 h 5 v 1.9 h -7 V 61.2 Z"
           id="path24" />
        <path
           class="st0"
           d="m 218.3,61.2 v 18.1 h -2 V 61.2 Z"
           id="path26" />
        <path
           class="st0"
           d="m 232.3,63.1 h -7.4 v 5.4 h 7.2 v 1.9 h -7.2 v 7.1 h 7.4 v 1.9 h -9.4 V 61.3 h 9.4 v 1.9 z"
           id="path28" />
        <path
           class="st0"
           d="M 236,79.3 V 61.2 h 3.7 c 1.6,0 3,0.2 4.1,0.6 1.2,0.4 2.2,1.1 3.1,2 1.7,1.7 2.5,3.8 2.5,6.4 0,2.6 -0.9,4.7 -2.6,6.4 -1,0.9 -2,1.6 -3.1,2 -1.1,0.4 -2.5,0.6 -4.1,0.6 h -3.7 z m 2,-1.9 h 1.8 c 2.4,0 4.3,-0.7 5.7,-2.1 1.3,-1.3 2,-3 2,-5.1 0,-2.1 -0.7,-3.7 -2,-5.1 -1.3,-1.4 -3.2,-2.1 -5.7,-2.1 H 238 v 14.3 z"
           id="path30" />
        <path
           class="st0"
           d="m 265.2,71.2 5.7,8.1 h -2.5 l -5.5,-7.9 h -0.5 v 7.9 h -2 V 61.2 h 2.9 c 2.1,0 3.7,0.4 4.7,1.3 1.1,0.9 1.6,2.2 1.6,3.8 0,1.6 -0.4,2.5 -1.3,3.4 -0.8,0.9 -1.9,1.4 -3.3,1.5 z m -2.7,-1.6 h 1.3 c 1.3,0 2.3,-0.3 3,-0.8 0.7,-0.6 1,-1.4 1,-2.5 0,-2.1 -1.3,-3.2 -4,-3.2 h -1.2 v 6.5 z"
           id="path32" />
        <path
           class="st0"
           d="M 283.4,63.1 H 276 v 5.4 h 7.2 v 1.9 H 276 v 7.1 h 7.4 v 1.9 H 274 V 61.3 h 9.4 v 1.9 z"
           id="path34" />
        <path
           class="st0"
           d="m 296.7,63.7 -1.6,1 c -0.4,-0.7 -0.9,-1.2 -1.4,-1.5 -0.5,-0.3 -1,-0.4 -1.7,-0.4 -0.7,0 -1.6,0.3 -2.1,0.8 -0.6,0.5 -0.9,1.2 -0.9,2 0,0.8 0.9,2 2.6,2.7 l 1.7,0.8 c 1.5,0.6 2.5,1.3 3.1,2.1 0.6,0.8 1,1.7 1,2.9 0,1.2 -0.6,2.9 -1.7,4 -1.1,1.1 -2.5,1.6 -4.1,1.6 -1.6,0 -2.6,-0.4 -3.6,-1.2 -1,-0.8 -1.6,-2 -2,-3.4 l 2,-0.6 c 0.5,2.2 1.7,3.3 3.7,3.3 2,0 1.9,-0.3 2.6,-1 0.7,-0.7 1.1,-1.5 1.1,-2.5 0,-1 -0.2,-1.4 -0.7,-1.9 -0.4,-0.5 -1.2,-1 -2.4,-1.5 l -1.6,-0.8 c -0.7,-0.3 -1.2,-0.6 -1.7,-0.9 -0.5,-0.3 -0.8,-0.7 -1.1,-1 -0.6,-0.7 -0.9,-1.5 -0.9,-2.5 0,-1 0.5,-2.4 1.4,-3.3 1,-0.9 2.2,-1.3 3.6,-1.3 1.4,0 3.6,0.9 4.7,2.8 z"
           id="path36" />
        <path
           class="st0"
           d="M 310.4,63.1 H 303 v 5.4 h 7.2 v 1.9 H 303 v 7.1 h 7.4 v 1.9 H 301 V 61.3 h 9.4 v 1.9 z"
           id="path38" />
        <path
           class="st0"
           d="m 323.9,74.2 h -7.7 l -2.2,5.1 h -2.2 l 8.3,-19 8.1,19 H 326 Z m -0.7,-1.9 -3,-7.3 -3.1,7.3 z"
           id="path40" />
        <path
           class="st0"
           d="m 335.5,71.2 5.7,8.1 h -2.5 l -5.5,-7.9 h -0.5 v 7.9 h -2 V 61.2 h 2.9 c 2.1,0 3.7,0.4 4.7,1.3 1.1,0.9 1.6,2.2 1.6,3.8 0,1.6 -0.4,2.5 -1.3,3.4 -0.8,0.9 -1.9,1.4 -3.3,1.5 z m -2.7,-1.6 h 1.3 c 1.3,0 2.3,-0.3 3,-0.8 0.7,-0.5 1,-1.4 1,-2.5 0,-2.1 -1.3,-3.2 -4,-3.2 h -1.2 v 6.5 z"
           id="path42" />
        <path
           class="st0"
           d="m 357.8,62.7 v 2.5 c -1.7,-1.6 -3.5,-2.4 -5.5,-2.4 -2,0 -3.7,0.7 -5.2,2.2 -1.4,1.5 -2.2,3.2 -2.2,5.3 0,2.1 0.8,4.1 2.5,5.5 1.4,1.3 3.1,1.9 4.8,1.9 1.7,0 3.8,-0.8 5.5,-2.4 v 2.5 c -1.7,1.2 -3.5,1.7 -5.5,1.7 -2,0 -4.8,-0.9 -6.6,-2.7 -1.8,-1.8 -2.8,-4 -2.8,-6.6 0,-2.6 0.9,-4.8 2.8,-6.6 1.9,-1.8 4.1,-2.8 6.7,-2.8 2.6,0 3.6,0.6 5.3,1.8 z"
           id="path44" />
        <path
           class="st0"
           d="m 363.9,68.6 h 9.3 v -7.4 h 2 v 18.1 h -2 v -8.8 h -9.3 v 8.8 h -2 V 61.2 h 2 z"
           id="path46" />
        <path
           class="st0"
           d="m 400.9,62.7 v 2.5 c -1.7,-1.6 -3.5,-2.4 -5.5,-2.4 -2,0 -3.7,0.7 -5.2,2.2 -1.4,1.5 -2.2,3.2 -2.2,5.3 0,2.1 0.8,4.1 2.5,5.5 1.4,1.3 3.1,1.9 4.8,1.9 1.7,0 3.8,-0.8 5.5,-2.4 v 2.5 c -1.7,1.2 -3.5,1.7 -5.5,1.7 -2,0 -4.8,-0.9 -6.6,-2.7 -1.8,-1.8 -2.8,-4 -2.8,-6.6 0,-2.6 0.9,-4.8 2.8,-6.6 1.9,-1.8 4.1,-2.8 6.7,-2.8 2.6,0 3.6,0.6 5.3,1.8 z"
           id="path48" />
        <path
           class="st0"
           d="m 403.4,70.2 c 0,-2.5 0.9,-4.7 2.8,-6.5 1.9,-1.8 4.1,-2.7 6.6,-2.7 2.5,0 4.8,0.9 6.6,2.8 1.8,1.9 2.8,4 2.8,6.6 0,2.6 -0.9,4.8 -2.8,6.6 -1.9,1.8 -4.1,2.7 -6.7,2.7 -2.6,0 -4.4,-0.8 -6.3,-2.4 -2.1,-1.8 -3.1,-4.2 -3.1,-7 z m 2,0 c 0,2.2 0.8,4.1 2.3,5.5 1.5,1.4 3.1,2.1 5,2.1 1.9,0 3.8,-0.7 5.3,-2.2 1.4,-1.5 2.2,-3.2 2.2,-5.3 0,-2.1 -0.7,-3.9 -2.2,-5.3 -1.4,-1.5 -3.2,-2.2 -5.2,-2.2 -2,0 -3.8,0.7 -5.2,2.2 -1.5,1.4 -2.2,3.2 -2.2,5.2 z"
           id="path50" />
        <path
           class="st0"
           d="m 427.9,61.2 v 16.2 h 5 v 1.9 h -7 V 61.2 Z"
           id="path52" />
        <path
           class="st0"
           d="m 437.5,61.2 v 16.2 h 5 v 1.9 h -7 V 61.2 Z"
           id="path54" />
        <path
           class="st0"
           d="m 456.2,74.2 h -7.7 l -2.2,5.1 h -2.2 l 8.3,-19 8.1,19 h -2.2 z m -0.8,-1.9 -3,-7.3 -3.1,7.3 z"
           id="path56" />
        <path
           class="st0"
           d="M 463,79.3 V 61.2 h 3.3 c 2,0 3.5,0.5 4.4,1.4 0.9,0.9 1.4,2.1 1.4,3.5 0,1.4 -0.6,2.6 -1.8,3.5 1.1,0.3 1.9,0.9 2.5,1.7 0.6,0.8 0.9,1.8 0.9,2.9 0,1.1 -0.5,2.6 -1.5,3.6 -0.6,0.5 -1.2,0.9 -1.9,1.2 -0.7,0.2 -1.6,0.4 -2.7,0.4 h -4.5 z m 2,-10.1 h 1.5 c 0.8,0 1.3,0 1.7,-0.2 0.4,-0.1 0.8,-0.4 1.1,-0.7 0.5,-0.5 0.8,-1.3 0.8,-2.2 0,-2 -1.2,-3.1 -3.5,-3.1 H 465 v 6.1 z m 0,8.2 h 2.3 c 0.9,0 1.6,0 2.1,-0.2 0.5,-0.1 0.9,-0.4 1.3,-0.8 0.6,-0.6 1,-1.4 1,-2.3 0,-0.9 -0.4,-1.9 -1.2,-2.5 -0.7,-0.5 -1.8,-0.8 -3.4,-0.8 h -2 v 6.5 z"
           id="path58" />
        <path
           class="st0"
           d="m 476.2,70.2 c 0,-2.5 0.9,-4.7 2.8,-6.5 1.9,-1.8 4.1,-2.7 6.6,-2.7 2.5,0 4.8,0.9 6.6,2.8 1.8,1.9 2.8,4 2.8,6.6 0,2.6 -0.9,4.8 -2.8,6.6 -1.9,1.8 -4.1,2.7 -6.7,2.7 -2.6,0 -4.4,-0.8 -6.3,-2.4 -2.1,-1.8 -3.1,-4.2 -3.1,-7 z m 2,0 c 0,2.2 0.8,4.1 2.3,5.5 1.5,1.4 3.1,2.1 5,2.1 1.9,0 3.8,-0.7 5.3,-2.2 1.4,-1.5 2.2,-3.2 2.2,-5.3 0,-2.1 -0.7,-3.9 -2.2,-5.3 -1.4,-1.5 -3.2,-2.2 -5.2,-2.2 -2,0 -3.8,0.7 -5.2,2.2 -1.5,1.4 -2.2,3.2 -2.2,5.2 z"
           id="path60" />
        <path
           class="st0"
           d="m 503.4,71.2 5.7,8.1 h -2.5 l -5.5,-7.9 h -0.5 v 7.9 h -2 V 61.2 h 2.9 c 2.1,0 3.7,0.4 4.7,1.3 1.1,0.9 1.6,2.2 1.6,3.8 0,1.6 -0.4,2.5 -1.3,3.4 -0.8,0.9 -1.9,1.4 -3.3,1.5 z m -2.7,-1.6 h 1.3 c 1.3,0 2.3,-0.3 3,-0.8 0.7,-0.5 1,-1.4 1,-2.5 0,-2.1 -1.3,-3.2 -4,-3.2 h -1.2 v 6.5 z"
           id="path62" />
        <path
           class="st0"
           d="m 522.2,74.2 h -7.7 l -2.2,5.1 h -2.2 l 8.3,-19 8.1,19 h -2.2 z m -0.8,-1.9 -3,-7.3 -3.1,7.3 z"
           id="path64" />
        <path
           class="st0"
           d="m 532.3,63.1 v 16.2 h -2 V 63.1 h -4.4 v -1.9 h 10.8 v 1.9 z"
           id="path66" />
        <path
           class="st0"
           d="m 537.5,70.2 c 0,-2.5 0.9,-4.7 2.8,-6.5 1.9,-1.8 4.1,-2.7 6.6,-2.7 2.5,0 4.8,0.9 6.6,2.8 1.8,1.9 2.8,4 2.8,6.6 0,2.6 -0.9,4.8 -2.8,6.6 -1.9,1.8 -4.1,2.7 -6.7,2.7 -2.6,0 -4.4,-0.8 -6.3,-2.4 -2.1,-1.8 -3.1,-4.2 -3.1,-7 z m 2.1,0 c 0,2.2 0.8,4.1 2.3,5.5 1.5,1.4 3.1,2.1 5,2.1 1.9,0 3.8,-0.7 5.3,-2.2 1.4,-1.5 2.2,-3.2 2.2,-5.3 0,-2.1 -0.7,-3.9 -2.2,-5.3 -1.4,-1.5 -3.2,-2.2 -5.2,-2.2 -2,0 -3.8,0.7 -5.2,2.2 -1.5,1.4 -2.2,3.2 -2.2,5.2 z"
           id="path68" />
        <path
           class="st0"
           d="m 564.7,71.2 5.7,8.1 h -2.5 l -5.5,-7.9 h -0.5 v 7.9 h -2 V 61.2 h 2.9 c 2.1,0 3.7,0.4 4.7,1.3 1.1,0.9 1.6,2.2 1.6,3.8 0,1.6 -0.4,2.5 -1.3,3.4 -0.8,0.9 -1.9,1.4 -3.3,1.5 z M 562,69.6 h 1.3 c 1.3,0 2.3,-0.3 3,-0.8 0.7,-0.5 1,-1.4 1,-2.5 0,-2.1 -1.3,-3.2 -4,-3.2 h -1.2 v 6.5 z"
           id="path70" />
        <path
           class="st0"
           d="m 576.6,71.5 -5.9,-10.3 h 2.3 l 4.6,8.1 4.7,-8.1 h 2.3 l -6,10.3 v 7.8 h -2 z"
           id="path72" />
      </g>
      <polyline
         class="st0"
         points="144.4 17.7 144.4 98.6 147.1 98.6 147.1 17.7"
         id="polyline130" />
    </g>
  </g>
</svg>
