<?xml version="1.0" encoding="UTF-8"?>
<svg id="Layer_1" data-name="Layer 1" xmlns="http://www.w3.org/2000/svg" version="1.1" xmlns:xlink="http://www.w3.org/1999/xlink" viewBox="0 0 1737.7 1555.2">
  <defs>
    <style>
      .cls-1 {
        stroke-width: 0px;
      }

      .cls-1, .cls-2, .cls-3, .cls-4 {
        fill: #231f20;
      }

      .cls-2 {
        font-family: CenturyGothic, 'Century Gothic';
        font-size: 39px;
        letter-spacing: 0em;
      }

      .cls-5 {
        clip-path: url(#clippath-2);
      }

      .cls-6 {
        clip-path: url(#clippath-1);
      }

      .cls-7 {
        font-family: Technovier-Light, Technovier;
        font-weight: 300;
      }

      .cls-8 {
        font-family: Technovier-Black, Technovier;
        font-weight: 800;
      }

      .cls-9 {
        clip-path: url(#clippath);
      }

      .cls-3 {
        font-size: 189px;
        letter-spacing: 0em;
      }
    </style>
    <clipPath id="clippath">
      <path class="cls-1" d="M924.9,727.1c-4.1,2.4-5.5,7.6-3.1,11.6,2.4,4.1,7.6,5.5,11.6,3.1,4.1-2.4,5.5-7.6,3.1-11.6-2.4-4.1-7.6-5.5-11.6-3.1M818,733.4c4.1-2.4,5.5-7.6,3.1-11.6-2.4-4.1-7.6-5.5-11.6-3.1-4.1,2.4-5.5,7.6-3.1,11.6,2.4,4.1,7.6,5.5,11.6,3.1ZM707,781.1l85.1-49.1c-2.6-9.6,1.4-20.2,10.4-25.4,10.7-6.2,24.5-2.5,30.7,8.2,6.2,10.7,2.5,24.5-8.2,30.7-9,5.2-20.2,3.4-27.2-3.7l-79.4,45.8-53.7,31v13.1l65.1-37.6,42.3,24.4,87-50.2,48.4-27.9c-2.6-9.6,1.4-20.2,10.4-25.4,10.7-6.2,24.5-2.5,30.7,8.2,6.2,10.7,2.5,24.5-8.2,30.7-9,5.2-20.2,3.4-27.2-3.7l-42.7,24.7,75.6,43.6,118.8-68.6-205.7-118.8-205.7,118.8,53.7,31Z"/>
    </clipPath>
    <clipPath id="clippath-1">
      <path class="cls-1" d="M728.2,614.5c0-4.7-3.8-8.5-8.5-8.5-4.7,0-8.5,3.8-8.5,8.5,0,4.7,3.8,8.5,8.5,8.5s8.5-3.8,8.5-8.5M776.2,518.9c0,4.7,3.8,8.5,8.5,8.5,4.7,0,8.5-3.8,8.5-8.5,0-4.7-3.8-8.5-8.5-8.5s-8.5,3.8-8.5,8.5ZM790.5,398.9v98.3c9.6,2.5,16.8,11.3,16.8,21.7,0,12.4-10,22.4-22.4,22.4-12.4,0-22.4-10-22.4-22.4s7.1-19.2,16.8-21.7v-153.7s-11.4-6.6-11.4-6.6v75.1s-42.3,24.4-42.3,24.4v100.4s0,55.9,0,55.9c9.6,2.5,16.8,11.3,16.8,21.7,0,12.4-10,22.4-22.4,22.4s-22.4-10-22.4-22.4c0-10.4,7.1-19.2,16.8-21.7v-49.3l-75.6,43.7v137.1l205.7-118.8v-237.6s-53.7,31-53.7,31Z"/>
    </clipPath>
    <clipPath id="clippath-2">
      <path class="cls-1" d="M924.1,500.5c4.1,2.4,9.3,1,11.6-3.1,2.4-4.1,1-9.3-3.1-11.6-4.1-2.4-9.3-1-11.6,3.1-2.4,4.1-1,9.3,3.1,11.6M982.9,589.9c-4.1-2.4-9.3-1-11.6,3.1-2.4,4.1-1,9.3,3.1,11.6,4.1,2.4,9.3,1,11.6-3.1,2.4-4.1,1-9.3-3.1-11.6ZM1079.7,662.2l-85.1-49.1c-7,7.1-18.2,8.9-27.2,3.7-10.7-6.2-14.4-19.9-8.2-30.7,6.2-10.7,19.9-14.4,30.7-8.2,9,5.2,13.1,15.8,10.4,25.4l79.4,45.8,53.7,31,11.4-6.6-65.1-37.6v-48.9s-87-50.2-87-50.2l-48.4-27.9c-7,7.1-18.2,8.9-27.2,3.7-10.7-6.2-14.4-19.9-8.2-30.7,6.2-10.7,19.9-14.4,30.7-8.2,9,5.2,13.1,15.8,10.4,25.4l42.7,24.7v-87.3s-118.8-68.6-118.8-68.6v237.6l205.7,118.8v-62Z"/>
    </clipPath>
  </defs>
  <text class="cls-2" transform="translate(423.7 1125.8) scale(1 1)"><tspan x="0" y="0" xml:space="preserve"> HIGH PERFORMANCE COMPUTING CLUB</tspan></text>
  <g>
    <g>
      <path class="cls-4" d="M924.9,727.1c-4.1,2.4-5.5,7.6-3.1,11.6,2.4,4.1,7.6,5.5,11.6,3.1,4.1-2.4,5.5-7.6,3.1-11.6-2.4-4.1-7.6-5.5-11.6-3.1M818,733.4c4.1-2.4,5.5-7.6,3.1-11.6-2.4-4.1-7.6-5.5-11.6-3.1-4.1,2.4-5.5,7.6-3.1,11.6,2.4,4.1,7.6,5.5,11.6,3.1ZM707,781.1l85.1-49.1c-2.6-9.6,1.4-20.2,10.4-25.4,10.7-6.2,24.5-2.5,30.7,8.2,6.2,10.7,2.5,24.5-8.2,30.7-9,5.2-20.2,3.4-27.2-3.7l-79.4,45.8-53.7,31v13.1l65.1-37.6,42.3,24.4,87-50.2,48.4-27.9c-2.6-9.6,1.4-20.2,10.4-25.4,10.7-6.2,24.5-2.5,30.7,8.2,6.2,10.7,2.5,24.5-8.2,30.7-9,5.2-20.2,3.4-27.2-3.7l-42.7,24.7,75.6,43.6,118.8-68.6-205.7-118.8-205.7,118.8,53.7,31Z"/>
      <g class="cls-9">
        <rect class="cls-1" x="653.3" y="631.3" width="411.5" height="200.5"/>
      </g>
    </g>
    <g>
      <path class="cls-4" d="M728.2,614.5c0-4.7-3.8-8.5-8.5-8.5-4.7,0-8.5,3.8-8.5,8.5,0,4.7,3.8,8.5,8.5,8.5s8.5-3.8,8.5-8.5M776.2,518.9c0,4.7,3.8,8.5,8.5,8.5,4.7,0,8.5-3.8,8.5-8.5,0-4.7-3.8-8.5-8.5-8.5s-8.5,3.8-8.5,8.5ZM790.5,398.9v98.3c9.6,2.5,16.8,11.3,16.8,21.7,0,12.4-10,22.4-22.4,22.4-12.4,0-22.4-10-22.4-22.4s7.1-19.2,16.8-21.7v-153.7s-11.4-6.6-11.4-6.6v75.1s-42.3,24.4-42.3,24.4v100.4s0,55.9,0,55.9c9.6,2.5,16.8,11.3,16.8,21.7,0,12.4-10,22.4-22.4,22.4s-22.4-10-22.4-22.4c0-10.4,7.1-19.2,16.8-21.7v-49.3l-75.6,43.7v137.1l205.7-118.8v-237.6s-53.7,31-53.7,31Z"/>
      <g class="cls-6">
        <rect class="cls-1" x="638.4" y="336.9" width="205.7" height="387.3"/>
      </g>
    </g>
    <g>
      <path class="cls-4" d="M924.1,500.5c4.1,2.4,9.3,1,11.6-3.1,2.4-4.1,1-9.3-3.1-11.6-4.1-2.4-9.3-1-11.6,3.1-2.4,4.1-1,9.3,3.1,11.6M982.9,589.9c-4.1-2.4-9.3-1-11.6,3.1-2.4,4.1-1,9.3,3.1,11.6,4.1,2.4,9.3,1,11.6-3.1,2.4-4.1,1-9.3-3.1-11.6ZM1079.7,662.2l-85.1-49.1c-7,7.1-18.2,8.9-27.2,3.7-10.7-6.2-14.4-19.9-8.2-30.7,6.2-10.7,19.9-14.4,30.7-8.2,9,5.2,13.1,15.8,10.4,25.4l79.4,45.8,53.7,31,11.4-6.6-65.1-37.6v-48.9s-87-50.2-87-50.2l-48.4-27.9c-7,7.1-18.2,8.9-27.2,3.7-10.7-6.2-14.4-19.9-8.2-30.7,6.2-10.7,19.9-14.4,30.7-8.2,9,5.2,13.1,15.8,10.4,25.4l42.7,24.7v-87.3s-118.8-68.6-118.8-68.6v237.6l205.7,118.8v-62Z"/>
      <g class="cls-5">
        <rect class="cls-1" x="874" y="367.9" width="270.8" height="356.3"/>
      </g>
    </g>
  </g>
  <text class="cls-3" transform="translate(335.8 1056.4)"><tspan class="cls-7" x="0" y="0">SIG</tspan><tspan class="cls-8" x="445.9" y="0">HPC</tspan></text>
</svg>