<?xml version="1.0" encoding="UTF-8"?>
<svg id="Layer_1" data-name="Layer 1" xmlns="http://www.w3.org/2000/svg" version="1.1" xmlns:xlink="http://www.w3.org/1999/xlink" viewBox="0 0 4194.3 1210.3">
  <defs>
    <style>
      .cls-1 {
        stroke-width: 0px;
      }

      .cls-1, .cls-2 {
        fill: #231f20;
      }

      .cls-3 {
        clip-path: url(#clippath-2);
      }

      .cls-4 {
        clip-path: url(#clippath-1);
      }

      .cls-5 {
        clip-path: url(#clippath);
      }
    </style>
    <clipPath id="clippath">
      <path class="cls-1" d="M813.8,749.4c-4.1,2.4-5.5,7.6-3.1,11.6,2.4,4.1,7.6,5.5,11.6,3.1,4.1-2.4,5.5-7.6,3.1-11.6-2.4-4.1-7.6-5.5-11.6-3.1M707,755.6c4.1-2.4,5.5-7.6,3.1-11.6-2.4-4.1-7.6-5.5-11.6-3.1-4.1,2.4-5.5,7.6-3.1,11.6,2.4,4.1,7.6,5.5,11.6,3.1ZM596,803.3l85.1-49.1c-2.6-9.6,1.4-20.2,10.4-25.4,10.7-6.2,24.5-2.5,30.7,8.2,6.2,10.7,2.5,24.5-8.2,30.7-9,5.2-20.2,3.4-27.2-3.7l-79.4,45.8-53.7,31v13.1l65.1-37.6,42.3,24.4,87-50.2,48.4-27.9c-2.6-9.6,1.4-20.2,10.4-25.4,10.7-6.2,24.5-2.5,30.7,8.2,6.2,10.7,2.5,24.5-8.2,30.7-9,5.2-20.2,3.4-27.2-3.7l-42.7,24.7,75.6,43.6,118.8-68.6-205.7-118.8-205.7,118.8,53.7,31Z"/>
    </clipPath>
    <clipPath id="clippath-1">
      <path class="cls-1" d="M617.2,636.7c0-4.7-3.8-8.5-8.5-8.5-4.7,0-8.5,3.8-8.5,8.5,0,4.7,3.8,8.5,8.5,8.5s8.5-3.8,8.5-8.5M665.2,541.1c0,4.7,3.8,8.5,8.5,8.5,4.7,0,8.5-3.8,8.5-8.5,0-4.7-3.8-8.5-8.5-8.5s-8.5,3.8-8.5,8.5ZM679.4,421.1v98.3c9.6,2.5,16.8,11.3,16.8,21.7,0,12.4-10,22.4-22.4,22.4-12.4,0-22.4-10-22.4-22.4s7.1-19.2,16.8-21.7v-153.7s-11.4-6.6-11.4-6.6v75.1s-42.3,24.4-42.3,24.4v100.4s0,55.9,0,55.9c9.6,2.5,16.8,11.3,16.8,21.7,0,12.4-10,22.4-22.4,22.4s-22.4-10-22.4-22.4c0-10.4,7.1-19.2,16.8-21.7v-49.3l-75.6,43.7v137.1l205.7-118.8v-237.6s-53.7,31-53.7,31Z"/>
    </clipPath>
    <clipPath id="clippath-2">
      <path class="cls-1" d="M813,522.8c4.1,2.4,9.3,1,11.6-3.1,2.4-4.1,1-9.3-3.1-11.6-4.1-2.4-9.3-1-11.6,3.1-2.4,4.1-1,9.3,3.1,11.6M871.9,612.2c-4.1-2.4-9.3-1-11.6,3.1-2.4,4.1-1,9.3,3.1,11.6,4.1,2.4,9.3,1,11.6-3.1,2.4-4.1,1-9.3-3.1-11.6ZM968.7,684.5l-85.1-49.1c-7,7.1-18.2,8.9-27.2,3.7-10.7-6.2-14.4-19.9-8.2-30.7,6.2-10.7,19.9-14.4,30.7-8.2,9,5.2,13.1,15.8,10.4,25.4l79.4,45.8,53.7,31,11.4-6.6-65.1-37.6v-48.9s-87-50.2-87-50.2l-48.4-27.9c-7,7.1-18.2,8.9-27.2,3.7-10.7-6.2-14.4-19.9-8.2-30.7,6.2-10.7,19.9-14.4,30.7-8.2,9,5.2,13.1,15.8,10.4,25.4l42.7,24.7v-87.3s-118.8-68.6-118.8-68.6v237.6l205.7,118.8v-62Z"/>
    </clipPath>
  </defs>
  <g>
    <path class="cls-1" d="M1482.3,779.3h6.1v26.2h31.1v-26.2h6.1v62.3h-6.1v-30.1h-31.1v30.1h-6.1v-62.3Z"/>
    <path class="cls-1" d="M1547.8,779.3h6.1v62.3h-6.1v-62.3Z"/>
    <path class="cls-1" d="M1635,789.8l-4.7,4.6c-3.4-3.4-7.1-6-11.2-7.8-4.1-1.8-8-2.6-11.9-2.6s-9.4,1.2-13.7,3.6c-4.3,2.4-7.7,5.7-10.1,9.8-2.4,4.1-3.6,8.5-3.6,13s1.2,9.1,3.7,13.4c2.5,4.2,5.9,7.5,10.2,10,4.3,2.4,9.1,3.6,14.3,3.6s11.6-1.8,16-5.4c4.3-3.6,6.9-8.3,7.7-14.1h-19.5v-6h26.3c0,9.6-2.9,17.3-8.4,23-5.6,5.7-13,8.5-22.3,8.5s-20.2-3.9-26.8-11.8c-5.1-6-7.6-13-7.6-21s1.5-11.4,4.4-16.5c2.9-5.1,6.9-9.1,12-11.9,5.1-2.9,10.8-4.3,17.2-4.3s10.1,1,14.6,2.9c4.6,1.9,9,5,13.4,9.2Z"/>
    <path class="cls-1" d="M1658.3,779.3h6.1v26.2h31.1v-26.2h6.1v62.3h-6.1v-30.1h-31.1v30.1h-6.1v-62.3Z"/>
    <path class="cls-1" d="M1756.3,779.3h12.2c7,0,11.7.3,14.1.9,3.5.9,6.3,2.7,8.6,5.4,2.2,2.7,3.3,6.2,3.3,10.3s-1.1,7.6-3.2,10.3c-2.2,2.7-5.1,4.5-8.9,5.4-2.8.7-7.9,1-15.5,1h-4.4v29h-6.1v-62.3ZM1762.4,785.5v21.1h10.3c4.2.1,7.2-.3,9.2-1,1.9-.8,3.5-2,4.6-3.8,1.1-1.7,1.7-3.7,1.7-5.8s-.6-4-1.7-5.7c-1.1-1.7-2.6-3-4.4-3.7-1.8-.7-4.8-1.1-8.9-1.1h-10.8Z"/>
    <path class="cls-1" d="M1814.9,779.3h35v6.1h-28.9v19.5h28.7v6.1h-28.7v24.5h28.7v6.1h-34.8v-62.3Z"/>
    <path class="cls-1" d="M1869,779.3h12.2c6.8,0,11.4.3,13.8.8,3.6.8,6.6,2.7,8.8,5.5,2.3,2.8,3.4,6.2,3.4,10.3s-.8,6.4-2.3,9c-1.6,2.6-3.8,4.5-6.7,5.8-2.9,1.3-6.9,2-12,2l22,28.9h-7.6l-22-28.9h-3.5v28.9h-6.1v-62.3ZM1875.1,785.5v21.2h10.5c4.1,0,7.1-.3,9-1.1,2-.8,3.5-2.1,4.6-3.8,1.1-1.7,1.6-3.7,1.6-5.8s-.6-4-1.7-5.7c-1.1-1.7-2.6-2.9-4.4-3.7-1.8-.7-4.8-1.1-9-1.1h-10.8Z"/>
    <path class="cls-1" d="M1928.5,779.3h30.6v6.1h-24.5v19.5h24.5v6.1h-24.5v30.6h-6.1v-62.3Z"/>
    <path class="cls-1" d="M2007,777.8c9.3,0,17,3.2,23.2,9.5,6.2,6.3,9.4,14.1,9.4,23.3s-3.1,16.9-9.3,23.2c-6.2,6.4-13.8,9.5-22.8,9.5s-16.7-3.2-22.9-9.5c-6.2-6.3-9.4-14-9.4-23s1.4-11.5,4.3-16.7c2.8-5.1,6.7-9.1,11.6-12,4.9-2.9,10.2-4.3,15.9-4.3ZM2007.2,783.8c-4.5,0-8.8,1.2-12.9,3.6s-7.2,5.6-9.5,9.7c-2.3,4.1-3.4,8.6-3.4,13.6,0,7.4,2.5,13.7,7.6,18.8,5,5.1,11.1,7.7,18.2,7.7s9.1-1.2,13.2-3.5c4-2.3,7.2-5.6,9.4-9.6,2.3-4.1,3.4-8.6,3.4-13.6s-1.1-9.4-3.4-13.4c-2.3-4-5.4-7.2-9.5-9.6-4.1-2.4-8.5-3.6-13.1-3.6Z"/>
    <path class="cls-1" d="M2060.3,779.3h12.2c6.8,0,11.4.3,13.8.8,3.6.8,6.6,2.7,8.8,5.5,2.3,2.8,3.4,6.2,3.4,10.3s-.8,6.4-2.3,9c-1.6,2.6-3.8,4.5-6.7,5.8-2.9,1.3-6.9,2-12,2l22,28.9h-7.6l-22-28.9h-3.5v28.9h-6.1v-62.3ZM2066.4,785.5v21.2h10.5c4.1,0,7.1-.3,9-1.1,2-.8,3.5-2.1,4.6-3.8,1.1-1.7,1.6-3.7,1.6-5.8s-.6-4-1.7-5.7c-1.1-1.7-2.6-2.9-4.4-3.7-1.8-.7-4.8-1.1-9-1.1h-10.8Z"/>
    <path class="cls-1" d="M2117,841.7l8.7-62.3h1l24.8,51.2,24.6-51.2h1l8.8,62.3h-6l-6-44.6-21.6,44.6h-1.6l-21.9-44.9-6,44.9h-5.9Z"/>
    <path class="cls-1" d="M2231.1,779.3l28.5,62.3h-6.6l-9.6-20.5h-26.3l-9.5,20.5h-6.8l28.9-62.3h1.5ZM2230.3,792.6l-10.5,22.6h20.9l-10.4-22.6Z"/>
    <path class="cls-1" d="M2277.3,841.7v-62.3h1.3l40.7,47.8v-47.8h6v62.3h-1.4l-40.3-47.2v47.2h-6.3Z"/>
    <path class="cls-1" d="M2405.2,790.9l-4.8,3.8c-2.7-3.5-5.9-6.2-9.6-8-3.7-1.8-7.8-2.7-12.3-2.7s-9.4,1.2-13.5,3.6c-4.2,2.4-7.4,5.6-9.7,9.6-2.3,4-3.4,8.6-3.4,13.6,0,7.6,2.6,13.9,7.7,19,5.1,5.1,11.6,7.6,19.3,7.6s15.7-3.4,21.5-10.3l4.8,3.7c-3,4-6.8,7-11.4,9.2-4.6,2.2-9.6,3.2-15.3,3.2-10.7,0-19.1-3.6-25.3-10.9-5.2-6.1-7.8-13.5-7.8-22.2s3.1-16.8,9.4-23c6.3-6.2,14.1-9.3,23.6-9.3s10.9,1.2,15.4,3.5c4.6,2.3,8.4,5.5,11.3,9.7Z"/>
    <path class="cls-1" d="M2425.7,779.3h35v6.1h-28.9v19.5h28.7v6.1h-28.7v24.5h28.7v6.1h-34.8v-62.3Z"/>
    <path class="cls-1" d="M2568,790.9l-4.8,3.8c-2.7-3.5-5.9-6.2-9.6-8-3.7-1.8-7.8-2.7-12.3-2.7s-9.4,1.2-13.5,3.6c-4.2,2.4-7.4,5.6-9.7,9.6-2.3,4-3.4,8.6-3.4,13.6,0,7.6,2.6,13.9,7.7,19,5.1,5.1,11.6,7.6,19.3,7.6s15.7-3.4,21.5-10.3l4.8,3.7c-3,4-6.8,7-11.4,9.2-4.6,2.2-9.6,3.2-15.3,3.2-10.7,0-19.1-3.6-25.3-10.9-5.2-6.1-7.8-13.5-7.8-22.2s3.1-16.8,9.4-23c6.3-6.2,14.1-9.3,23.6-9.3s10.9,1.2,15.4,3.5c4.6,2.3,8.4,5.5,11.3,9.7Z"/>
    <path class="cls-1" d="M2617.5,777.8c9.3,0,17,3.2,23.2,9.5,6.2,6.3,9.4,14.1,9.4,23.3s-3.1,16.9-9.3,23.2c-6.2,6.4-13.8,9.5-22.8,9.5s-16.7-3.2-22.9-9.5c-6.2-6.3-9.4-14-9.4-23s1.4-11.5,4.3-16.7c2.8-5.1,6.7-9.1,11.6-12,4.9-2.9,10.2-4.3,15.9-4.3ZM2617.8,783.8c-4.5,0-8.8,1.2-12.9,3.6s-7.2,5.6-9.5,9.7c-2.3,4.1-3.4,8.6-3.4,13.6,0,7.4,2.5,13.7,7.6,18.8,5,5.1,11.1,7.7,18.2,7.7s9.1-1.2,13.2-3.5c4-2.3,7.2-5.6,9.4-9.6,2.3-4.1,3.4-8.6,3.4-13.6s-1.1-9.4-3.4-13.4c-2.3-4-5.4-7.2-9.5-9.6-4.1-2.4-8.5-3.6-13.1-3.6Z"/>
    <path class="cls-1" d="M2667.8,841.7l8.7-62.3h1l24.8,51.2,24.6-51.2h1l8.8,62.3h-6l-6-44.6-21.6,44.6h-1.6l-21.9-44.9-6,44.9h-5.9Z"/>
    <path class="cls-1" d="M2756.9,779.3h12.2c7,0,11.7.3,14.1.9,3.5.9,6.3,2.7,8.6,5.4,2.2,2.7,3.3,6.2,3.3,10.3s-1.1,7.6-3.2,10.3c-2.2,2.7-5.1,4.5-8.9,5.4-2.8.7-7.9,1-15.5,1h-4.4v29h-6.1v-62.3ZM2763,785.5v21.1h10.3c4.2.1,7.2-.3,9.2-1,1.9-.8,3.5-2,4.6-3.8,1.1-1.7,1.7-3.7,1.7-5.8s-.6-4-1.7-5.7c-1.1-1.7-2.6-3-4.4-3.7-1.8-.7-4.8-1.1-8.9-1.1h-10.8Z"/>
    <path class="cls-1" d="M2815.6,779.3h6.1v37.6c0,4.5,0,7.2.2,8.3.3,2.5,1,4.5,2.1,6.2,1.1,1.7,2.8,3,5.1,4.2,2.3,1.1,4.6,1.7,6.9,1.7s4-.4,5.8-1.3c1.9-.9,3.4-2.1,4.7-3.6,1.2-1.6,2.2-3.4,2.7-5.6.4-1.6.6-4.8.6-9.7v-37.6h6.1v37.6c0,5.6-.5,10.1-1.6,13.5-1.1,3.4-3.2,6.4-6.4,9-3.2,2.5-7.1,3.8-11.6,3.8s-9.2-1.2-12.7-3.6c-3.5-2.4-5.9-5.6-7.1-9.5-.7-2.4-1.1-6.8-1.1-13.1v-37.6Z"/>
    <path class="cls-1" d="M2873.2,785.5v-6.1h33.5v6.1h-13.6v56.2h-6.2v-56.2h-13.6Z"/>
    <path class="cls-1" d="M2922.8,779.3h6.1v62.3h-6.1v-62.3Z"/>
    <path class="cls-1" d="M2951.1,841.7v-62.3h1.3l40.7,47.8v-47.8h6v62.3h-1.4l-40.3-47.2v47.2h-6.3Z"/>
    <path class="cls-1" d="M3081.1,789.8l-4.7,4.6c-3.4-3.4-7.1-6-11.2-7.8-4.1-1.8-8-2.6-11.9-2.6s-9.4,1.2-13.7,3.6c-4.3,2.4-7.7,5.7-10.1,9.8-2.4,4.1-3.6,8.5-3.6,13s1.2,9.1,3.7,13.4c2.5,4.2,5.9,7.5,10.2,10,4.3,2.4,9.1,3.6,14.3,3.6s11.6-1.8,16-5.4c4.3-3.6,6.9-8.3,7.7-14.1h-19.5v-6h26.3c0,9.6-2.9,17.3-8.4,23-5.6,5.7-13,8.5-22.3,8.5s-20.2-3.9-26.8-11.8c-5.1-6-7.6-13-7.6-21s1.5-11.4,4.4-16.5c2.9-5.1,6.9-9.1,12-11.9,5.1-2.9,10.8-4.3,17.2-4.3s10.1,1,14.6,2.9c4.6,1.9,9,5,13.4,9.2Z"/>
    <path class="cls-1" d="M3193.1,790.9l-4.8,3.8c-2.7-3.5-5.9-6.2-9.6-8-3.7-1.8-7.8-2.7-12.3-2.7s-9.4,1.2-13.5,3.6c-4.2,2.4-7.4,5.6-9.7,9.6-2.3,4-3.4,8.6-3.4,13.6,0,7.6,2.6,13.9,7.7,19,5.1,5.1,11.6,7.6,19.3,7.6s15.7-3.4,21.5-10.3l4.8,3.7c-3,4-6.8,7-11.4,9.2-4.6,2.2-9.6,3.2-15.3,3.2-10.7,0-19.1-3.6-25.3-10.9-5.2-6.1-7.8-13.5-7.8-22.2s3.1-16.8,9.4-23c6.3-6.2,14.1-9.3,23.6-9.3s10.9,1.2,15.4,3.5c4.6,2.3,8.4,5.5,11.3,9.7Z"/>
    <path class="cls-1" d="M3213.5,779.3h6.1v56.3h23.5v6h-29.6v-62.3Z"/>
    <path class="cls-1" d="M3261.2,779.3h6.1v37.6c0,4.5,0,7.2.2,8.3.3,2.5,1,4.5,2.1,6.2,1.1,1.7,2.8,3,5.1,4.2,2.3,1.1,4.6,1.7,6.9,1.7s4-.4,5.8-1.3c1.9-.9,3.4-2.1,4.7-3.6,1.2-1.6,2.2-3.4,2.7-5.6.4-1.6.6-4.8.6-9.7v-37.6h6.1v37.6c0,5.6-.5,10.1-1.6,13.5-1.1,3.4-3.2,6.4-6.4,9-3.2,2.5-7.1,3.8-11.6,3.8s-9.2-1.2-12.7-3.6-5.9-5.6-7.1-9.5c-.7-2.4-1.1-6.8-1.1-13.1v-37.6Z"/>
    <path class="cls-1" d="M3325,779.3h12c4.8,0,8.6.6,11.2,1.8,2.6,1.2,4.7,3,6.2,5.4,1.5,2.4,2.3,5.1,2.3,8.1s-.7,5.3-2,7.6c-1.3,2.3-3.3,4.1-5.8,5.5,3.2,1.1,5.6,2.4,7.3,3.9,1.7,1.5,3,3.3,4,5.4,1,2.1,1.4,4.4,1.4,6.8,0,5-1.8,9.2-5.4,12.7-3.6,3.5-8.4,5.2-14.4,5.2h-16.8v-62.3ZM3331,785.5v20h3.5c4.2,0,7.4-.4,9.4-1.2,2-.8,3.6-2.1,4.7-3.8,1.2-1.7,1.7-3.7,1.7-5.8s-1-5.1-2.9-6.7c-2-1.6-5.1-2.4-9.3-2.4h-7.1ZM3331,811.7v23.9h7.6c4.5,0,7.7-.4,9.8-1.3,2.1-.9,3.8-2.3,5-4.2,1.3-1.9,1.9-3.9,1.9-6.1s-.9-5.2-2.7-7.2c-1.8-2.1-4.2-3.5-7.3-4.2-2.1-.5-5.7-.8-10.9-.8h-3.5Z"/>
  </g>
  <g>
    <g>
      <path class="cls-2" d="M813.8,749.4c-4.1,2.4-5.5,7.6-3.1,11.6,2.4,4.1,7.6,5.5,11.6,3.1,4.1-2.4,5.5-7.6,3.1-11.6-2.4-4.1-7.6-5.5-11.6-3.1M707,755.6c4.1-2.4,5.5-7.6,3.1-11.6-2.4-4.1-7.6-5.5-11.6-3.1-4.1,2.4-5.5,7.6-3.1,11.6,2.4,4.1,7.6,5.5,11.6,3.1ZM596,803.3l85.1-49.1c-2.6-9.6,1.4-20.2,10.4-25.4,10.7-6.2,24.5-2.5,30.7,8.2,6.2,10.7,2.5,24.5-8.2,30.7-9,5.2-20.2,3.4-27.2-3.7l-79.4,45.8-53.7,31v13.1l65.1-37.6,42.3,24.4,87-50.2,48.4-27.9c-2.6-9.6,1.4-20.2,10.4-25.4,10.7-6.2,24.5-2.5,30.7,8.2,6.2,10.7,2.5,24.5-8.2,30.7-9,5.2-20.2,3.4-27.2-3.7l-42.7,24.7,75.6,43.6,118.8-68.6-205.7-118.8-205.7,118.8,53.7,31Z"/>
      <g class="cls-5">
        <rect class="cls-1" x="542.3" y="653.5" width="411.5" height="200.5"/>
      </g>
    </g>
    <g>
      <path class="cls-2" d="M617.2,636.7c0-4.7-3.8-8.5-8.5-8.5-4.7,0-8.5,3.8-8.5,8.5,0,4.7,3.8,8.5,8.5,8.5s8.5-3.8,8.5-8.5M665.2,541.1c0,4.7,3.8,8.5,8.5,8.5,4.7,0,8.5-3.8,8.5-8.5,0-4.7-3.8-8.5-8.5-8.5s-8.5,3.8-8.5,8.5ZM679.4,421.1v98.3c9.6,2.5,16.8,11.3,16.8,21.7,0,12.4-10,22.4-22.4,22.4-12.4,0-22.4-10-22.4-22.4s7.1-19.2,16.8-21.7v-153.7s-11.4-6.6-11.4-6.6v75.1s-42.3,24.4-42.3,24.4v100.4s0,55.9,0,55.9c9.6,2.5,16.8,11.3,16.8,21.7,0,12.4-10,22.4-22.4,22.4s-22.4-10-22.4-22.4c0-10.4,7.1-19.2,16.8-21.7v-49.3l-75.6,43.7v137.1l205.7-118.8v-237.6s-53.7,31-53.7,31Z"/>
      <g class="cls-4">
        <rect class="cls-1" x="527.4" y="359.1" width="205.7" height="387.3"/>
      </g>
    </g>
    <g>
      <path class="cls-2" d="M813,522.8c4.1,2.4,9.3,1,11.6-3.1,2.4-4.1,1-9.3-3.1-11.6-4.1-2.4-9.3-1-11.6,3.1-2.4,4.1-1,9.3,3.1,11.6M871.9,612.2c-4.1-2.4-9.3-1-11.6,3.1-2.4,4.1-1,9.3,3.1,11.6,4.1,2.4,9.3,1,11.6-3.1,2.4-4.1,1-9.3-3.1-11.6ZM968.7,684.5l-85.1-49.1c-7,7.1-18.2,8.9-27.2,3.7-10.7-6.2-14.4-19.9-8.2-30.7,6.2-10.7,19.9-14.4,30.7-8.2,9,5.2,13.1,15.8,10.4,25.4l79.4,45.8,53.7,31,11.4-6.6-65.1-37.6v-48.9s-87-50.2-87-50.2l-48.4-27.9c-7,7.1-18.2,8.9-27.2,3.7-10.7-6.2-14.4-19.9-8.2-30.7,6.2-10.7,19.9-14.4,30.7-8.2,9,5.2,13.1,15.8,10.4,25.4l42.7,24.7v-87.3s-118.8-68.6-118.8-68.6v237.6l205.7,118.8v-62Z"/>
      <g class="cls-3">
        <rect class="cls-1" x="762.9" y="390.1" width="270.8" height="356.3"/>
      </g>
    </g>
  </g>
  <g>
    <path class="cls-1" d="M1340.3,687.4c-34.9,0-64.1-25.5-69.2-58.1l-.8-5.3h31.2l.8,3.7c3.9,16.8,19.5,28.8,38,28.8h235.6c21.8,0,38.8-16.4,38.8-37.2v-26.3c0-21-17-37.2-38.8-37.2h-235.6c-38.4,0-70-30.6-70-68.2v-26.5c0-37.4,31.6-68.2,70-68.2h235.6c35.1,0,64.1,25.7,69.2,58.1l.8,5.3h-31.2l-.8-3.5c-3.9-17-19.5-28.8-38-28.8h-235.6c-21.8,0-38.8,16.2-38.8,37v26.5c0,20.7,17,37.2,38.8,37.2h235.6c38.4,0,69.8,30.6,69.8,68.2v26.3c0,37.6-31.4,68.2-69.8,68.2h-235.6Z"/>
    <path class="cls-1" d="M1709,687.4v-294.5h31v294.5h-31Z"/>
    <path class="cls-1" d="M1885.8,687.4c-42.1,0-76.4-34.3-76.4-76.4v-141.7c0-42.1,34.3-76.4,76.4-76.4h243c38.2,0,70.7,28.8,75.8,66.3l.6,5.3h-31.2l-.6-3.9c-4.1-21.6-22.4-36.6-44.6-36.6h-243c-25.5,0-45.4,19.7-45.4,45.2v141.7c0,25.5,19.9,45.4,45.4,45.4h243c25.5,0,45.4-19.9,45.4-45.4v-55.3h-162.3v-31h193.3v86.3c0,41.9-34.3,76.4-76.4,76.4h-243Z"/>
    <path class="cls-1" d="M2594.6,687.4v-116.7h-262.1v116.7h-61v-294.5h61v116.9h262.1v-116.9h61.2v294.5h-61.2Z"/>
    <path class="cls-1" d="M2727.5,687.4v-294.5h290.9c46.6,0,84.4,38,84.4,84.4v53.8c0,46.6-37.8,84.4-84.4,84.4h-229.8v71.9h-61ZM3041.8,531.1v-53.8c0-12.9-10.3-23.2-23.4-23.2h-229.8v100.4h229.8c13.1,0,23.4-10.3,23.4-23.4Z"/>
    <path class="cls-1" d="M3245.1,687.4c-46.6,0-84.4-37.8-84.4-84.4v-125.7c0-46.4,37.8-84.4,84.4-84.4h215.5c46.4,0,84.4,38,84.4,84.4v12.5h-61.2v-12.5c0-12.9-10.1-23.2-23.2-23.2h-215.5c-13.1,0-23.4,10.3-23.4,23.2v125.7c0,13.1,10.3,23.4,23.4,23.4h215.5c13.1,0,23.2-10.3,23.2-23.4v-12.5h61.2v12.5c0,46.6-38,84.4-84.4,84.4h-215.5Z"/>
  </g>
  <rect class="cls-1" x="1124.5" y="369.2" width="5.2" height="502.7"/>
</svg>